<svg fill="currentColor" width="100%" height="100%" viewBox="0 0 530 217" version="1.1" xmlns="http://www.w3.org/2000/svg" xmlns:xlink="http://www.w3.org/1999/xlink" xml:space="preserve" xmlns:serif="http://www.serif.com/" style="fill-rule:evenodd;clip-rule:evenodd;stroke-linejoin:round;stroke-miterlimit:2;">
  <g>
    <path d="M2.361,110.992c-0,20.515 15.934,33.661 40.632,33.661c28.284,-0 45.015,-12.747 45.015,-34.458c-0,-11.951 -6.972,-20.117 -21.312,-24.698l-17.13,-5.577c-6.573,-2.191 -9.76,-5.378 -9.76,-9.561c0,-5.577 3.984,-8.564 11.553,-8.564c7.17,-0 11.751,4.581 11.751,11.552l28.284,-0c-0,-19.52 -15.337,-33.263 -37.446,-33.263c-26.291,0 -42.226,12.748 -42.226,33.661c0,13.545 8.565,21.91 22.308,26.292l17.528,5.577c5.975,1.793 7.967,3.784 7.967,8.166c0,5.378 -5.776,8.963 -14.341,8.963c-8.963,0 -14.141,-4.182 -14.54,-11.751l-28.283,-0Z" style="fill-rule:nonzero;"/>
    <path d="M90.995,190.265l29.678,-0l9.162,-60.949c5.378,8.963 18.524,15.536 32.267,15.536c29.877,0 51.986,-23.901 51.986,-58.957c-0,-27.088 -17.329,-45.811 -40.832,-45.811c-13.743,0 -24.1,5.577 -31.271,14.939l0.199,-12.15l-27.885,-0l-23.304,147.392Zm44.816,-93.216c-0,-17.328 12.548,-30.872 27.885,-30.872c12.747,-0 20.714,8.763 20.714,21.71c0,17.329 -12.548,30.873 -27.885,30.873c-12.747,-0 -20.714,-8.764 -20.714,-21.711Z" style="fill-rule:nonzero;"/>
    <path d="M306.108,42.673c-3.585,-0.995 -7.568,-1.394 -11.353,-1.394c-12.548,0 -22.507,6.374 -28.084,16.134l0.598,-14.54l-27.885,-0l-15.736,99.589l29.678,0l6.971,-44.218c2.988,-19.519 14.74,-27.686 31.869,-27.686l9.561,0l4.381,-27.885Z" style="fill-rule:nonzero;"/>
    <path d="M351.322,144.852c23.503,0 44.218,-14.54 50.99,-35.852l-29.08,-0c-3.785,7.37 -10.955,11.552 -20.317,11.552c-12.747,0 -19.121,-6.573 -19.917,-19.918l70.31,-0.398l1.195,-7.768c4.979,-31.868 -12.15,-52.384 -43.023,-52.384c-32.267,0 -56.766,25.893 -56.766,60.152c0,28.284 17.13,44.616 46.608,44.616Zm8.366,-80.667c12.149,-0 18.722,6.971 16.93,17.926l-40.633,-0c4.382,-10.756 13.146,-17.926 23.703,-17.926Z" style="fill-rule:nonzero;"/>
    <path d="M463.061,144.852c23.503,0 44.218,-14.54 50.99,-35.852l-29.08,-0c-3.784,7.37 -10.955,11.552 -20.316,11.552c-12.748,0 -19.121,-6.573 -19.918,-19.918l70.31,-0.398l1.195,-7.768c4.98,-31.868 -12.15,-52.384 -43.023,-52.384c-32.267,0 -56.766,25.893 -56.766,60.152c0,28.284 17.13,44.616 46.608,44.616Zm8.366,-80.667c12.15,-0 18.723,6.971 16.93,17.926l-40.632,-0c4.381,-10.756 13.145,-17.926 23.702,-17.926Z" style="fill-rule:nonzero;"/>
    <path d="M516.945,160.873l-373.712,-0.119l-4.558,29.492l378.27,-0l-0,-29.373Z"/>
  </g>
</svg>
